:SAMPLES-PER-SECOND 30
:FRAME-RANGE 1-2045
:FULLY-SPECIFIED
:DEGREES
1406
root  18.8177 36.4318 3.30639 2.52161 -8.62558 -3.4306
RightUpLeg  -25.8638 -1.13709 -5.45098
RightLeg  48.8878 1.18545 1.11728
RightFoot  -25.3279 1.57342 14.1707
RightToes  -5.28216e-011 1.2921e-014 -6.02303e-014
Spine  20.1693 2.49528 8.00601
Spine1  2.53418 5.395 -6.31676
HEad  0.943344 16.3274 -10.5712
LeftShoulder1  2.04339 -7.59192 -11.8699
LeftArm  -25.0908 -30.0093 -30.7794
LeftForeArm  -10.583 -8.24836 -5.01908
LeftHand  0.0392052 0.808031 -1.11883
RightShoulder  3.31725 9.53245 19.5266
RightArm  -11.9741 41.2979 83.4753
RightForeArm  29.6235 3.75231 2.3088
RightHand  -0.268791 -1.95625 -8.86452
LeftUpLeg  -38.2078 0.751135 7.20258
LeftLeg  43.4865 -1.15392 -0.757393
LeftFoot  -3.11105 0.465368 -6.20593
LeftToes  9.43379e-011 5.24309e-011 -4.66411e-011
1407
root  19.6421 37.0974 3.84752 3.43475 -5.91933 -2.00995
RightUpLeg  -27.535 5.03824 -4.84488
RightLeg  42.6573 5.84494 5.45986
RightFoot  -26.73 2.15229 17.1668
RightToes  -5.28216e-011 1.2921e-014 -6.02303e-014
Spine  20.2838 1.70124 8.54227
Spine1  2.13286 4.98084 -7.1877
HEad  0.924108 16.009 -12.9661
LeftShoulder1  2.13116 -7.35834 -13.2344
LeftArm  -24.2037 -29.6779 -31.4831
LeftForeArm  -10.6831 -7.19509 -5.10313
LeftHand  0.0748867 0.638233 -1.93705
RightShoulder  3.2412 9.39336 19.1851
RightArm  -12.9797 39.8086 82.9243
RightForeArm  29.4469 4.59559 2.4758
RightHand  -0.277733 -1.69863 -8.5594
LeftUpLeg  -38.5263 4.46479 2.97159
LeftLeg  41.8478 -6.50909 -5.81088
LeftFoot  1.25871 0.699911 -6.40575
LeftToes  9.43379e-011 5.24309e-011 -4.66411e-011
1408
root  20.4541 37.3978 4.40564 3.59106 -1.98807 -0.216125
RightUpLeg  -28.568 9.5877 -6.89318
RightLeg  37.7436 11.0985 8.84472
RightFoot  -28.2697 2.84796 20.2474
RightToes  -5.28216e-011 1.2921e-014 -6.02303e-014
Spine  20.6546 0.752361 8.584
Spine1  2.06382 3.95665 -6.67356
HEad  0.713521 15.1288 -15.5442
LeftShoulder1  2.27043 -7.52567 -14.3103
LeftArm  -23.3182 -29.4534 -32.7237
LeftForeArm  -9.84661 -5.69885 -5.15473
LeftHand  0.0746415 0.758048 -1.99867
RightShoulder  3.15158 9.05668 19.1514
RightArm  -13.8913 38.915 81.2059
RightForeArm  28.4378 5.40835 2.73968
RightHand  -0.2698 -1.53888 -7.98104
LeftUpLeg  -38.8064 6.56951 0.554379
LeftLeg  42.951 -13.7029 -12.9205
LeftFoot  0.446533 2.36884 -22.7078
LeftToes  9.43379e-011 5.24309e-011 -4.66411e-011
1409
root  21.3399 37.3786 5.01868 2.97119 1.89391 0.736877
RightUpLeg  -28.9526 11.6617 -8.65814
RightLeg  35.9021 11.8645 8.85035
RightFoot  -26.0762 2.09462 17.4557
RightToes  -5.28216e-011 1.2921e-014 -6.02303e-014
Spine  21.2119 0.186224 9.71386
Spine1  2.07848 2.97316 -4.99705
HEad  1.32624 13.5694 -16.6627
LeftShoulder1  2.45869 -8.12372 -14.9137
LeftArm  -21.9851 -29.01 -34.5362
LeftForeArm  -9.77914 -4.42997 -5.34977
LeftHand  0.0799058 0.829913 -2.17673
RightShoulder  3.06457 8.46001 19.7457
RightArm  -15.4443 38.2383 78.2559
RightForeArm  27.5634 5.9639 2.75211
RightHand  -0.26145 -1.48126 -7.61965
LeftUpLeg  -38.1625 6.8123 1.55321
LeftLeg  45.3614 -18.264 -18.4359
LeftFoot  -2.91149 2.88265 -37.572
LeftToes  9.43379e-011 5.24309e-011 -4.66411e-011
1410
root  22.1544 36.9038 5.59432 1.9884 4.79387 2.06427
RightUpLeg  -29.2949 11.4444 -11.0494
RightLeg  39.8836 8.48649 7.26869
RightFoot  -20.0039 1.15878 16.988
RightToes  -5.28216e-011 1.2921e-014 -6.02303e-014
Spine  21.2621 -0.147697 9.2663
Spine1  2.60073 2.40856 -4.37833
HEad  2.2831 12.6415 -16.4356
LeftShoulder1  2.55895 -8.44681 -15.2
LeftArm  -20.8846 -27.5991 -35.9212
LeftForeArm  -9.8369 -4.37256 -5.62344
LeftHand  0.0942464 0.850902 -2.56137
RightShoulder  3.00589 8.01524 20.2866
RightArm  -17.6086 38.0302 76.4687
RightForeArm  26.0349 5.0258 1.65893
RightHand  -0.261069 -1.3505 -7.37701
LeftUpLeg  -37.9786 4.80826 4.56158
LeftLeg  47.9234 -12.3097 -13.813
LeftFoot  -6.52523 1.43656 -32.4161
LeftToes  9.43379e-011 5.24309e-011 -4.66411e-011
1411
root  22.9646 36.2724 6.10569 0.902039 5.94246 3.03674
RightUpLeg  -29.7914 10.3006 -12.8631
RightLeg  45.6505 7.47518 7.81625
RightFoot  -20.2997 0.849554 12.564
RightToes  -5.28216e-011 1.2921e-014 -6.02303e-014
Spine  22.0366 -0.306967 8.00177
Spine1  2.5664 2.02046 -4.0089
HEad  2.47375 13.2102 -16.4808
LeftShoulder1  2.54186 -7.9903 -15.9978
LeftArm  -19.9993 -25.087 -35.4613
LeftForeArm  -8.45746 -5.69711 -6.11356
LeftHand  0.0993046 0.685601 -2.57305
RightShoulder  2.95798 7.66762 20.7188
RightArm  -18.8154 38.4649 77.0746
RightForeArm  23.6642 2.8733 0.121253
RightHand  -0.244717 -1.71745 -7.54577
LeftUpLeg  -36.9228 3.25719 9.47816
LeftLeg  48.9687 -7.23474 -8.39284
LeftFoot  -7.77056 0.782131 -23.3172
LeftToes  9.43379e-011 5.24309e-011 -4.66411e-011
1412
root  23.7611 35.5501 6.66427 -0.517395 6.50125 3.08521
RightUpLeg  -29.3107 9.61548 -14.0406
RightLeg  50.5587 7.48659 9.31288
RightFoot  -23.7134 1.05124 11.1569
RightToes  -5.28216e-011 1.2921e-014 -6.02303e-014
Spine  23.1141 -0.602514 7.26734
Spine1  3.36208 1.79273 -4.42834
HEad  0.8182 13.9246 -16.8988
LeftShoulder1  2.52398 -7.56747 -16.7731
LeftArm  -19.5114 -22.3946 -34.2346
LeftForeArm  -7.23912 -7.53836 -6.52397
LeftHand  0.0964152 0.45202 -2.34982
RightShoulder  3.03005 7.63883 21.5004
RightArm  -18.847 39.1955 77.8651
RightForeArm  21.2209 1.93399 -0.592923
RightHand  -0.23681 -1.96606 -7.79043
LeftUpLeg  -34.5855 1.66671 15.827
LeftLeg  47.3363 -4.02968 -4.2416
LeftFoot  -7.13178 0.655348 -16.5759
LeftToes  9.43379e-011 5.24309e-011 -4.66411e-011
